<mxfile host="app.diagrams.net" modified="2023-12-08T17:31:37.230Z" agent="Mozilla/5.0 (Windows NT 10.0; Win64; x64) AppleWebKit/537.36 (KHTML, like Gecko) Chrome/118.0.5993.2470 YaBrowser/23.11.0.2470 Yowser/2.5 Safari/537.36" etag="gaNDAOduYnXKliPHlXhe" version="22.1.7" type="github">
  <diagram name="Страница — 1" id="ponGt4ZlQZ8tgk8bFvVd">
    <mxGraphModel dx="2906" dy="1161" grid="1" gridSize="10" guides="1" tooltips="1" connect="1" arrows="1" fold="1" page="1" pageScale="1" pageWidth="1169" pageHeight="827" math="0" shadow="0">
      <root>
        <mxCell id="0" />
        <mxCell id="1" parent="0" />
        <mxCell id="Y7DTLhBJiYZk3cN3ozTO-1" value="Авторизация" style="swimlane;fontStyle=0;childLayout=stackLayout;horizontal=1;startSize=30;horizontalStack=0;resizeParent=1;resizeParentMax=0;resizeLast=0;collapsible=1;marginBottom=0;whiteSpace=wrap;html=1;" vertex="1" parent="1">
          <mxGeometry x="140" y="480" width="140" height="90" as="geometry" />
        </mxCell>
        <mxCell id="Y7DTLhBJiYZk3cN3ozTO-2" value="-Авторизовать пользователя" style="text;strokeColor=none;fillColor=none;align=left;verticalAlign=middle;spacingLeft=4;spacingRight=4;overflow=hidden;points=[[0,0.5],[1,0.5]];portConstraint=eastwest;rotatable=0;whiteSpace=wrap;html=1;" vertex="1" parent="Y7DTLhBJiYZk3cN3ozTO-1">
          <mxGeometry y="30" width="140" height="30" as="geometry" />
        </mxCell>
        <mxCell id="Y7DTLhBJiYZk3cN3ozTO-4" value="-Регистрация" style="text;strokeColor=none;fillColor=none;align=left;verticalAlign=middle;spacingLeft=4;spacingRight=4;overflow=hidden;points=[[0,0.5],[1,0.5]];portConstraint=eastwest;rotatable=0;whiteSpace=wrap;html=1;" vertex="1" parent="Y7DTLhBJiYZk3cN3ozTO-1">
          <mxGeometry y="60" width="140" height="30" as="geometry" />
        </mxCell>
        <mxCell id="Y7DTLhBJiYZk3cN3ozTO-8" value="Регистрация" style="swimlane;fontStyle=0;childLayout=stackLayout;horizontal=1;startSize=30;horizontalStack=0;resizeParent=1;resizeParentMax=0;resizeLast=0;collapsible=1;marginBottom=0;whiteSpace=wrap;html=1;" vertex="1" parent="1">
          <mxGeometry x="470" y="470" width="140" height="120" as="geometry">
            <mxRectangle x="90" y="400" width="110" height="30" as="alternateBounds" />
          </mxGeometry>
        </mxCell>
        <mxCell id="Y7DTLhBJiYZk3cN3ozTO-9" value="-Ввести данные" style="text;strokeColor=none;fillColor=none;align=left;verticalAlign=middle;spacingLeft=4;spacingRight=4;overflow=hidden;points=[[0,0.5],[1,0.5]];portConstraint=eastwest;rotatable=0;whiteSpace=wrap;html=1;" vertex="1" parent="Y7DTLhBJiYZk3cN3ozTO-8">
          <mxGeometry y="30" width="140" height="30" as="geometry" />
        </mxCell>
        <mxCell id="Y7DTLhBJiYZk3cN3ozTO-11" value="-Выйти в меню" style="text;strokeColor=none;fillColor=none;align=left;verticalAlign=middle;spacingLeft=4;spacingRight=4;overflow=hidden;points=[[0,0.5],[1,0.5]];portConstraint=eastwest;rotatable=0;whiteSpace=wrap;html=1;" vertex="1" parent="Y7DTLhBJiYZk3cN3ozTO-8">
          <mxGeometry y="60" width="140" height="30" as="geometry" />
        </mxCell>
        <mxCell id="Y7DTLhBJiYZk3cN3ozTO-10" value="-Зарегистрироваться" style="text;strokeColor=none;fillColor=none;align=left;verticalAlign=middle;spacingLeft=4;spacingRight=4;overflow=hidden;points=[[0,0.5],[1,0.5]];portConstraint=eastwest;rotatable=0;whiteSpace=wrap;html=1;" vertex="1" parent="Y7DTLhBJiYZk3cN3ozTO-8">
          <mxGeometry y="90" width="140" height="30" as="geometry" />
        </mxCell>
        <mxCell id="Y7DTLhBJiYZk3cN3ozTO-12" style="edgeStyle=orthogonalEdgeStyle;rounded=0;orthogonalLoop=1;jettySize=auto;html=1;exitX=1;exitY=0.5;exitDx=0;exitDy=0;entryX=-0.009;entryY=0.863;entryDx=0;entryDy=0;entryPerimeter=0;" edge="1" parent="1" source="Y7DTLhBJiYZk3cN3ozTO-1" target="Y7DTLhBJiYZk3cN3ozTO-9">
          <mxGeometry relative="1" as="geometry" />
        </mxCell>
        <mxCell id="Y7DTLhBJiYZk3cN3ozTO-13" value="Нажата кнопка -Регистрация" style="text;html=1;align=center;verticalAlign=middle;resizable=0;points=[];autosize=1;strokeColor=none;fillColor=none;" vertex="1" parent="1">
          <mxGeometry x="280" y="498" width="180" height="30" as="geometry" />
        </mxCell>
        <mxCell id="Y7DTLhBJiYZk3cN3ozTO-14" value="Меню выбора действий клиента" style="swimlane;fontStyle=0;childLayout=stackLayout;horizontal=1;startSize=30;horizontalStack=0;resizeParent=1;resizeParentMax=0;resizeLast=0;collapsible=1;marginBottom=0;whiteSpace=wrap;html=1;" vertex="1" parent="1">
          <mxGeometry x="650" y="470" width="140" height="150" as="geometry">
            <mxRectangle x="650" y="470" width="220" height="30" as="alternateBounds" />
          </mxGeometry>
        </mxCell>
        <mxCell id="Y7DTLhBJiYZk3cN3ozTO-15" value="-Просмотр списка доступных путевок" style="text;strokeColor=none;fillColor=none;align=left;verticalAlign=middle;spacingLeft=4;spacingRight=4;overflow=hidden;points=[[0,0.5],[1,0.5]];portConstraint=eastwest;rotatable=0;whiteSpace=wrap;html=1;" vertex="1" parent="Y7DTLhBJiYZk3cN3ozTO-14">
          <mxGeometry y="30" width="140" height="30" as="geometry" />
        </mxCell>
        <mxCell id="Y7DTLhBJiYZk3cN3ozTO-16" value="-Просмотр истории покупок" style="text;strokeColor=none;fillColor=none;align=left;verticalAlign=middle;spacingLeft=4;spacingRight=4;overflow=hidden;points=[[0,0.5],[1,0.5]];portConstraint=eastwest;rotatable=0;whiteSpace=wrap;html=1;" vertex="1" parent="Y7DTLhBJiYZk3cN3ozTO-14">
          <mxGeometry y="60" width="140" height="30" as="geometry" />
        </mxCell>
        <mxCell id="Y7DTLhBJiYZk3cN3ozTO-28" value="-Редактирование личных данных" style="text;strokeColor=none;fillColor=none;align=left;verticalAlign=middle;spacingLeft=4;spacingRight=4;overflow=hidden;points=[[0,0.5],[1,0.5]];portConstraint=eastwest;rotatable=0;whiteSpace=wrap;html=1;" vertex="1" parent="Y7DTLhBJiYZk3cN3ozTO-14">
          <mxGeometry y="90" width="140" height="30" as="geometry" />
        </mxCell>
        <mxCell id="Y7DTLhBJiYZk3cN3ozTO-17" value="-Выход из учетной записи" style="text;strokeColor=none;fillColor=none;align=left;verticalAlign=middle;spacingLeft=4;spacingRight=4;overflow=hidden;points=[[0,0.5],[1,0.5]];portConstraint=eastwest;rotatable=0;whiteSpace=wrap;html=1;" vertex="1" parent="Y7DTLhBJiYZk3cN3ozTO-14">
          <mxGeometry y="120" width="140" height="30" as="geometry" />
        </mxCell>
        <mxCell id="Y7DTLhBJiYZk3cN3ozTO-18" value="" style="curved=1;endArrow=classic;html=1;rounded=0;exitX=-0.021;exitY=-0.079;exitDx=0;exitDy=0;exitPerimeter=0;entryX=1.021;entryY=1.001;entryDx=0;entryDy=0;entryPerimeter=0;" edge="1" parent="1" source="Y7DTLhBJiYZk3cN3ozTO-10" target="Y7DTLhBJiYZk3cN3ozTO-4">
          <mxGeometry width="50" height="50" relative="1" as="geometry">
            <mxPoint x="340" y="640" as="sourcePoint" />
            <mxPoint x="390" y="590" as="targetPoint" />
            <Array as="points">
              <mxPoint x="390" y="590" />
              <mxPoint x="340" y="590" />
            </Array>
          </mxGeometry>
        </mxCell>
        <mxCell id="Y7DTLhBJiYZk3cN3ozTO-19" value="Клиент зарегистрирован" style="text;html=1;align=center;verticalAlign=middle;resizable=0;points=[];autosize=1;strokeColor=none;fillColor=none;" vertex="1" parent="1">
          <mxGeometry x="280" y="590" width="160" height="30" as="geometry" />
        </mxCell>
        <mxCell id="Y7DTLhBJiYZk3cN3ozTO-20" value="" style="curved=1;endArrow=classic;html=1;rounded=0;entryX=0;entryY=0;entryDx=0;entryDy=0;" edge="1" parent="1" target="Y7DTLhBJiYZk3cN3ozTO-14">
          <mxGeometry width="50" height="50" relative="1" as="geometry">
            <mxPoint x="280" y="490" as="sourcePoint" />
            <mxPoint x="330" y="440" as="targetPoint" />
            <Array as="points">
              <mxPoint x="330" y="490" />
              <mxPoint x="520" y="420" />
            </Array>
          </mxGeometry>
        </mxCell>
        <mxCell id="Y7DTLhBJiYZk3cN3ozTO-21" value="Авторизация клиента" style="text;html=1;align=center;verticalAlign=middle;resizable=0;points=[];autosize=1;strokeColor=none;fillColor=none;" vertex="1" parent="1">
          <mxGeometry x="420" y="408" width="140" height="30" as="geometry" />
        </mxCell>
        <mxCell id="Y7DTLhBJiYZk3cN3ozTO-25" value="" style="ellipse;html=1;shape=startState;fillColor=#000000;strokeColor=#ff0000;" vertex="1" parent="1">
          <mxGeometry x="25" y="510" width="30" height="30" as="geometry" />
        </mxCell>
        <mxCell id="Y7DTLhBJiYZk3cN3ozTO-26" value="" style="edgeStyle=orthogonalEdgeStyle;html=1;verticalAlign=bottom;endArrow=open;endSize=8;strokeColor=#ff0000;rounded=0;entryX=-0.011;entryY=0.491;entryDx=0;entryDy=0;entryPerimeter=0;" edge="1" source="Y7DTLhBJiYZk3cN3ozTO-25" parent="1" target="Y7DTLhBJiYZk3cN3ozTO-2">
          <mxGeometry relative="1" as="geometry">
            <mxPoint x="40" y="698" as="targetPoint" />
          </mxGeometry>
        </mxCell>
        <mxCell id="Y7DTLhBJiYZk3cN3ozTO-30" value="" style="curved=1;endArrow=classic;html=1;rounded=0;exitX=0.048;exitY=1.014;exitDx=0;exitDy=0;exitPerimeter=0;entryX=0.356;entryY=1.1;entryDx=0;entryDy=0;entryPerimeter=0;" edge="1" parent="1" source="Y7DTLhBJiYZk3cN3ozTO-17" target="Y7DTLhBJiYZk3cN3ozTO-4">
          <mxGeometry width="50" height="50" relative="1" as="geometry">
            <mxPoint x="430" y="700" as="sourcePoint" />
            <mxPoint x="480" y="650" as="targetPoint" />
            <Array as="points">
              <mxPoint x="480" y="680" />
              <mxPoint x="450" y="680" />
              <mxPoint x="420" y="680" />
              <mxPoint x="350" y="670" />
            </Array>
          </mxGeometry>
        </mxCell>
        <mxCell id="Y7DTLhBJiYZk3cN3ozTO-31" value="Нажата кнопка -Выйти" style="text;html=1;align=center;verticalAlign=middle;resizable=0;points=[];autosize=1;strokeColor=none;fillColor=none;" vertex="1" parent="1">
          <mxGeometry x="355" y="678" width="150" height="30" as="geometry" />
        </mxCell>
        <mxCell id="Y7DTLhBJiYZk3cN3ozTO-32" value="Список путевок" style="swimlane;fontStyle=0;childLayout=stackLayout;horizontal=1;startSize=30;horizontalStack=0;resizeParent=1;resizeParentMax=0;resizeLast=0;collapsible=1;marginBottom=0;whiteSpace=wrap;html=1;" vertex="1" parent="1">
          <mxGeometry x="1040" y="470" width="140" height="180" as="geometry">
            <mxRectangle x="650" y="470" width="220" height="30" as="alternateBounds" />
          </mxGeometry>
        </mxCell>
        <mxCell id="Y7DTLhBJiYZk3cN3ozTO-33" value="-Выбрать путевку" style="text;strokeColor=none;fillColor=none;align=left;verticalAlign=middle;spacingLeft=4;spacingRight=4;overflow=hidden;points=[[0,0.5],[1,0.5]];portConstraint=eastwest;rotatable=0;whiteSpace=wrap;html=1;" vertex="1" parent="Y7DTLhBJiYZk3cN3ozTO-32">
          <mxGeometry y="30" width="140" height="30" as="geometry" />
        </mxCell>
        <mxCell id="Y7DTLhBJiYZk3cN3ozTO-34" value="Выбрать кол-во недель" style="text;strokeColor=none;fillColor=none;align=left;verticalAlign=middle;spacingLeft=4;spacingRight=4;overflow=hidden;points=[[0,0.5],[1,0.5]];portConstraint=eastwest;rotatable=0;whiteSpace=wrap;html=1;" vertex="1" parent="Y7DTLhBJiYZk3cN3ozTO-32">
          <mxGeometry y="60" width="140" height="30" as="geometry" />
        </mxCell>
        <mxCell id="Y7DTLhBJiYZk3cN3ozTO-35" value="-Выбрать кол-во путевок" style="text;strokeColor=none;fillColor=none;align=left;verticalAlign=middle;spacingLeft=4;spacingRight=4;overflow=hidden;points=[[0,0.5],[1,0.5]];portConstraint=eastwest;rotatable=0;whiteSpace=wrap;html=1;" vertex="1" parent="Y7DTLhBJiYZk3cN3ozTO-32">
          <mxGeometry y="90" width="140" height="30" as="geometry" />
        </mxCell>
        <mxCell id="Y7DTLhBJiYZk3cN3ozTO-39" value="-Перейти к оформлению" style="text;strokeColor=none;fillColor=none;align=left;verticalAlign=middle;spacingLeft=4;spacingRight=4;overflow=hidden;points=[[0,0.5],[1,0.5]];portConstraint=eastwest;rotatable=0;whiteSpace=wrap;html=1;" vertex="1" parent="Y7DTLhBJiYZk3cN3ozTO-32">
          <mxGeometry y="120" width="140" height="30" as="geometry" />
        </mxCell>
        <mxCell id="Y7DTLhBJiYZk3cN3ozTO-36" value="-Выйти" style="text;strokeColor=none;fillColor=none;align=left;verticalAlign=middle;spacingLeft=4;spacingRight=4;overflow=hidden;points=[[0,0.5],[1,0.5]];portConstraint=eastwest;rotatable=0;whiteSpace=wrap;html=1;" vertex="1" parent="Y7DTLhBJiYZk3cN3ozTO-32">
          <mxGeometry y="150" width="140" height="30" as="geometry" />
        </mxCell>
        <mxCell id="Y7DTLhBJiYZk3cN3ozTO-37" value="" style="endArrow=classic;html=1;rounded=0;exitX=1.015;exitY=0.643;exitDx=0;exitDy=0;exitPerimeter=0;entryX=-0.011;entryY=0.681;entryDx=0;entryDy=0;entryPerimeter=0;" edge="1" parent="1" source="Y7DTLhBJiYZk3cN3ozTO-15" target="Y7DTLhBJiYZk3cN3ozTO-33">
          <mxGeometry width="50" height="50" relative="1" as="geometry">
            <mxPoint x="850" y="560" as="sourcePoint" />
            <mxPoint x="900" y="510" as="targetPoint" />
          </mxGeometry>
        </mxCell>
        <mxCell id="Y7DTLhBJiYZk3cN3ozTO-38" value="Нажата кнопка&lt;br&gt;-Просмотр списка доступных путевок" style="text;html=1;align=center;verticalAlign=middle;resizable=0;points=[];autosize=1;strokeColor=none;fillColor=none;" vertex="1" parent="1">
          <mxGeometry x="800" y="480" width="230" height="40" as="geometry" />
        </mxCell>
        <mxCell id="Y7DTLhBJiYZk3cN3ozTO-40" value="" style="endArrow=classic;html=1;rounded=0;entryX=1.019;entryY=0.329;entryDx=0;entryDy=0;entryPerimeter=0;exitX=0.005;exitY=0.329;exitDx=0;exitDy=0;exitPerimeter=0;" edge="1" parent="1" source="Y7DTLhBJiYZk3cN3ozTO-39" target="Y7DTLhBJiYZk3cN3ozTO-17">
          <mxGeometry width="50" height="50" relative="1" as="geometry">
            <mxPoint x="960" y="640" as="sourcePoint" />
            <mxPoint x="1010" y="590" as="targetPoint" />
          </mxGeometry>
        </mxCell>
        <mxCell id="Y7DTLhBJiYZk3cN3ozTO-41" value="Нажата кнопка&lt;br&gt;-Выйти" style="text;html=1;align=center;verticalAlign=middle;resizable=0;points=[];autosize=1;strokeColor=none;fillColor=none;" vertex="1" parent="1">
          <mxGeometry x="860" y="563" width="110" height="40" as="geometry" />
        </mxCell>
      </root>
    </mxGraphModel>
  </diagram>
</mxfile>
